<svg xmlns="http://www.w3.org/2000/svg" width="14.75" height="17" viewBox="0 0 14.75 17">
  <metadata><?xpacket begin="﻿" id="W5M0MpCehiHzreSzNTczkc9d"?>
<x:xmpmeta xmlns:x="adobe:ns:meta/" x:xmptk="Adobe XMP Core 5.6-c138 79.159824, 2016/09/14-01:09:01        ">
   <rdf:RDF xmlns:rdf="http://www.w3.org/1999/02/22-rdf-syntax-ns#">
      <rdf:Description rdf:about=""/>
   </rdf:RDF>
</x:xmpmeta>
                                                                                                    
                                                                                                    
                                                                                                    
                                                                                                    
                                                                                                    
                                                                                                    
                                                                                                    
                                                                                                    
                                                                                                    
                                                                                                    
                                                                                                    
                                                                                                    
                                                                                                    
                                                                                                    
                                                                                                    
                                                                                                    
                                                                                                    
                                                                                                    
                                                                                                    
                                                                                                    
                           
<?xpacket end="w"?></metadata>
<defs>
    <style>
      .cls-1 {
        fill: #d1cfdf;
        stroke: #d1cfdf;
        stroke-width: 1px;
        fill-rule: evenodd;
      }
    </style>
  </defs>
  <path class="cls-1" d="M7377.04,2274.04h-0.92a0.6,0.6,0,1,1,0-1.2h1.61a0.4,0.4,0,0,0,0-.8h-0.75v-0.56a0.4,0.4,0,0,0-.8,0v0.56h-0.06a1.4,1.4,0,1,0,0,2.8h0.92a0.6,0.6,0,0,1,.6.6,0.6,0.6,0,0,1-.6.6h-1.64a0.4,0.4,0,0,0,0,.8h0.78v0.57a0.4,0.4,0,1,0,.8,0v-0.57h0.08A1.4,1.4,0,0,0,7377.04,2274.04Zm5.54-.9a11.554,11.554,0,0,0-1.73-2.78,13.147,13.147,0,0,0-2.22-2.1l1.7-3.15a0.392,0.392,0,0,0-.07-0.47,2,2,0,0,0-1.43-.64,3.37,3.37,0,0,0-1.29.34,2.5,2.5,0,0,1-.81.24,0.582,0.582,0,0,1-.19-0.03,5.89,5.89,0,0,0-1.99-.47,2.694,2.694,0,0,0-2,.94,0.392,0.392,0,0,0-.04.5l1.83,2.76a13.042,13.042,0,0,0-2.19,2.08,11.554,11.554,0,0,0-1.73,2.78,9.5,9.5,0,0,0-.79,3.76,3.1,3.1,0,0,0,3.1,3.1h7.54a3.1,3.1,0,0,0,3.1-3.1A9.5,9.5,0,0,0,7382.58,2273.14Zm-9.22-7.79a1.73,1.73,0,0,1,1.19-.48,5.238,5.238,0,0,1,1.72.42,1.173,1.173,0,0,0,.46.08,2.964,2.964,0,0,0,1.12-.3,2.757,2.757,0,0,1,.98-0.28,1.073,1.073,0,0,1,.64.22l-1.59,2.97h-2.78Zm6.91,13.85h-7.54a2.3,2.3,0,0,1-2.3-2.3,9.3,9.3,0,0,1,2.32-6.01,12.145,12.145,0,0,1,2.25-2.11h2.99a12.082,12.082,0,0,1,2.26,2.11,9.3,9.3,0,0,1,2.32,6.01A2.3,2.3,0,0,1,7380.27,2279.2Z" transform="translate(-7369.13 -2263.5)"/>
</svg>
