<svg xmlns="http://www.w3.org/2000/svg" width="54.91" height="54" viewBox="0 0 54.91 54">
  <metadata><?xpacket begin="﻿" id="W5M0MpCehiHzreSzNTczkc9d"?>
<x:xmpmeta xmlns:x="adobe:ns:meta/" x:xmptk="Adobe XMP Core 5.6-c138 79.159824, 2016/09/14-01:09:01        ">
   <rdf:RDF xmlns:rdf="http://www.w3.org/1999/02/22-rdf-syntax-ns#">
      <rdf:Description rdf:about=""/>
   </rdf:RDF>
</x:xmpmeta>
                                                                                                    
                                                                                                    
                                                                                                    
                                                                                                    
                                                                                                    
                                                                                                    
                                                                                                    
                                                                                                    
                                                                                                    
                                                                                                    
                                                                                                    
                                                                                                    
                                                                                                    
                                                                                                    
                                                                                                    
                                                                                                    
                                                                                                    
                                                                                                    
                                                                                                    
                                                                                                    
                           
<?xpacket end="w"?></metadata>
<defs>
    <style>
      .cls-1 {
        fill: #fff;
        fill-rule: evenodd;
      }
    </style>
  </defs>
  <path id="ico-8" class="cls-1" d="M7473.61,1545a6.751,6.751,0,1,1-6.87,6.75A6.8,6.8,0,0,1,7473.61,1545Zm10.28,35.27-1.56-15.35a3.4,3.4,0,0,0-3.41-3.05h-1.88a1.742,1.742,0,0,0-1.22.5l-2.21,2.18-2.22-2.18a1.719,1.719,0,0,0-1.21-.5h-1.88a3.411,3.411,0,0,0-3.42,3.04l-1.56,15.36a1.663,1.663,0,0,0,.44,1.3,1.715,1.715,0,0,0,1.27.55h1.88l1.41,13.84a3.394,3.394,0,0,0,3.41,3.04h3.76a3.4,3.4,0,0,0,3.41-3.04l1.41-13.84h1.88a1.748,1.748,0,0,0,1.27-.55A1.643,1.643,0,0,0,7483.89,1580.27Zm-46.31-1.52h-6.86a1.707,1.707,0,0,0-1.72,1.69v16.87a1.707,1.707,0,0,0,1.72,1.69h6.86a1.7,1.7,0,0,0,1.71-1.69v-16.87A1.7,1.7,0,0,0,7437.58,1578.75Zm17.16-16.88h-6.87a1.705,1.705,0,0,0-1.71,1.69v33.75a1.705,1.705,0,0,0,1.71,1.69h6.87a1.705,1.705,0,0,0,1.71-1.69v-33.75A1.705,1.705,0,0,0,7454.74,1561.87Z" transform="translate(-7429 -1545)"/>
</svg>
