<svg xmlns="http://www.w3.org/2000/svg" width="54.94" height="50.62" viewBox="0 0 54.94 50.62">
  <metadata><?xpacket begin="﻿" id="W5M0MpCehiHzreSzNTczkc9d"?>
<x:xmpmeta xmlns:x="adobe:ns:meta/" x:xmptk="Adobe XMP Core 5.6-c138 79.159824, 2016/09/14-01:09:01        ">
   <rdf:RDF xmlns:rdf="http://www.w3.org/1999/02/22-rdf-syntax-ns#">
      <rdf:Description rdf:about=""/>
   </rdf:RDF>
</x:xmpmeta>
                                                                                                    
                                                                                                    
                                                                                                    
                                                                                                    
                                                                                                    
                                                                                                    
                                                                                                    
                                                                                                    
                                                                                                    
                                                                                                    
                                                                                                    
                                                                                                    
                                                                                                    
                                                                                                    
                                                                                                    
                                                                                                    
                                                                                                    
                                                                                                    
                                                                                                    
                                                                                                    
                           
<?xpacket end="w"?></metadata>
<defs>
    <style>
      .cls-1 {
        fill: #fff;
        fill-rule: evenodd;
      }
    </style>
  </defs>
  <path id="ico-5" class="cls-1" d="M6911.15,1439.31h-3.43A1.707,1.707,0,0,0,6906,1441v23.63a1.7,1.7,0,0,0,1.72,1.68h3.43a1.7,1.7,0,0,0,1.72-1.68V1441A1.707,1.707,0,0,0,6911.15,1439.31Zm48.69,3.64a5.194,5.194,0,0,0-7.22-.88l-12.66,9.68a5.228,5.228,0,0,1-3.16,1.06h-11.92a8.5,8.5,0,0,0,8.58-8.43,1.7,1.7,0,0,0-1.71-1.69H6916.3v20.25h22.85a8.7,8.7,0,0,0,5.27-1.78l14.52-11.1A5,5,0,0,0,6959.84,1442.95Zm-22.94-15.45c-1.86,0-3.44-1.16-3.44-2.53s1.58-2.53,3.44-2.53a3.915,3.915,0,0,1,2.45.8,1.742,1.742,0,0,0,2.41-.24,1.648,1.648,0,0,0-.24-2.37,6.9,6.9,0,0,0-2.91-1.35v-1.91a1.715,1.715,0,0,0-3.43,0v1.9c-2.95.66-5.15,2.95-5.15,5.7,0,3.26,3.08,5.91,6.87,5.91,1.86,0,3.43,1.15,3.43,2.53s-1.57,2.53-3.43,2.53a3.93,3.93,0,0,1-2.46-.81,1.733,1.733,0,0,0-2.41.25,1.659,1.659,0,0,0,.25,2.37,7.1,7.1,0,0,0,2.9,1.35v1.9a1.715,1.715,0,0,0,3.43,0v-1.9c2.96-.66,5.15-2.95,5.15-5.69C6943.76,1430.15,6940.68,1427.5,6936.9,1427.5Z" transform="translate(-6906 -1415.69)"/>
</svg>
