<svg xmlns="http://www.w3.org/2000/svg" width="54.94" height="54" viewBox="0 0 54.94 54">
  <metadata><?xpacket begin="﻿" id="W5M0MpCehiHzreSzNTczkc9d"?>
<x:xmpmeta xmlns:x="adobe:ns:meta/" x:xmptk="Adobe XMP Core 5.6-c138 79.159824, 2016/09/14-01:09:01        ">
   <rdf:RDF xmlns:rdf="http://www.w3.org/1999/02/22-rdf-syntax-ns#">
      <rdf:Description rdf:about=""/>
   </rdf:RDF>
</x:xmpmeta>
                                                                                                    
                                                                                                    
                                                                                                    
                                                                                                    
                                                                                                    
                                                                                                    
                                                                                                    
                                                                                                    
                                                                                                    
                                                                                                    
                                                                                                    
                                                                                                    
                                                                                                    
                                                                                                    
                                                                                                    
                                                                                                    
                                                                                                    
                                                                                                    
                                                                                                    
                                                                                                    
                           
<?xpacket end="w"?></metadata>
<defs>
    <style>
      .cls-1 {
        fill: #fff;
        fill-rule: evenodd;
      }
    </style>
  </defs>
  <path id="ico-7" class="cls-1" d="M6933.52,1546a6.751,6.751,0,1,1-6.87,6.75A6.806,6.806,0,0,1,6933.52,1546Zm10.29,31.85-1.56-11.94a3.386,3.386,0,0,0-3.41-3.03h-1.88a1.716,1.716,0,0,0-1.22.49l-2.22,2.18-2.21-2.18a1.733,1.733,0,0,0-1.22-.49h-1.88a3.384,3.384,0,0,0-3.41,2.99l-1.57,11.98a1.666,1.666,0,0,0,.42,1.33,1.74,1.74,0,0,0,1.29.57h1.85l1.44,17.21a3.4,3.4,0,0,0,3.42,3.04h3.76a3.413,3.413,0,0,0,3.42-3.07l1.43-17.18h1.85a1.757,1.757,0,0,0,1.29-.57A1.624,1.624,0,0,0,6943.81,1577.85Zm6.89-31.85a6.751,6.751,0,1,1-6.87,6.75A6.8,6.8,0,0,1,6950.7,1546Zm-34.35,0a6.751,6.751,0,1,0,6.87,6.75A6.819,6.819,0,0,0,6916.35,1546Zm44.64,31.85-1.56-11.93a3.4,3.4,0,0,0-3.42-3.04h-1.88a1.733,1.733,0,0,0-1.22.49l-2.21,2.18-2.22-2.18a1.733,1.733,0,0,0-1.22-.49h-1.88a3.26,3.26,0,0,0-.61.11,6.5,6.5,0,0,1,.9,2.53l1.55,11.9a4.873,4.873,0,0,1-2.96,5.19l1.14,10.98a3.411,3.411,0,0,0,3.42,3.04h3.76a3.413,3.413,0,0,0,3.42-3.07l1.43-13.81h1.85a1.74,1.74,0,0,0,1.29-.57A1.666,1.666,0,0,0,6960.99,1577.85Zm-39.92,3.55a4.951,4.951,0,0,1-1.24-3.98l1.56-11.98a6.324,6.324,0,0,1,.85-2.46,3.575,3.575,0,0,0-.57-0.1h-1.88a1.716,1.716,0,0,0-1.22.49l-2.22,2.18-2.22-2.18a1.709,1.709,0,0,0-1.21-.49h-1.88a3.4,3.4,0,0,0-3.42,2.99l-1.56,11.98a1.666,1.666,0,0,0,.42,1.33,1.724,1.724,0,0,0,1.29.57h1.85l1.44,13.84a3.394,3.394,0,0,0,3.41,3.04h3.76a3.4,3.4,0,0,0,3.42-3.07l1.14-10.95A5.166,5.166,0,0,1,6921.07,1581.4Z" transform="translate(-6906.06 -1546)"/>
</svg>
