<svg xmlns="http://www.w3.org/2000/svg" width="30" height="27.188" viewBox="0 0 30 27.188">
  <metadata><?xpacket begin="﻿" id="W5M0MpCehiHzreSzNTczkc9d"?>
<x:xmpmeta xmlns:x="adobe:ns:meta/" x:xmptk="Adobe XMP Core 5.6-c138 79.159824, 2016/09/14-01:09:01        ">
   <rdf:RDF xmlns:rdf="http://www.w3.org/1999/02/22-rdf-syntax-ns#">
      <rdf:Description rdf:about=""/>
   </rdf:RDF>
</x:xmpmeta>
                                                                                                    
                                                                                                    
                                                                                                    
                                                                                                    
                                                                                                    
                                                                                                    
                                                                                                    
                                                                                                    
                                                                                                    
                                                                                                    
                                                                                                    
                                                                                                    
                                                                                                    
                                                                                                    
                                                                                                    
                                                                                                    
                                                                                                    
                                                                                                    
                                                                                                    
                                                                                                    
                           
<?xpacket end="w"?></metadata>
<defs>
    <style>
      .cls-1 {
        fill: #fff;
        fill-rule: evenodd;
      }
    </style>
  </defs>
  <path id="Forma_1" data-name="Forma 1" class="cls-1" d="M6483.39,694.575l1.38,0.809,2.87-1.659-4.28-2.5Zm8.53-5.171,1.05-1.835c0.82-1.455-1.54-3.046-2.59-3.663s-3.59-1.9-4.42-.443l-1.38,2.418a21.536,21.536,0,0,0-4.58-.486c-8.29,0-15,4.541-15,10.146s6.71,10.146,15,10.146l0.07,0c0.06,1.223-1.25,3.223-3.25,4.3a13.938,13.938,0,0,0,11.55-6.019c4-1.824,6.63-4.915,6.63-8.421A8.24,8.24,0,0,0,6491.92,689.4Zm-20.14,9.02a1.384,1.384,0,1,1,1.36-1.384A1.374,1.374,0,0,1,6471.78,698.424Zm3.72,0a1.384,1.384,0,1,1,1.37-1.384A1.372,1.372,0,0,1,6475.5,698.424Zm3.73,0a1.384,1.384,0,1,1,1.37-1.384A1.372,1.372,0,0,1,6479.23,698.424Zm8.91-4.4-2.87,1.658-2.37,1.364-0.01-2.76-0.03-3.355,3.96-6.955c0.23-.4,1.6-0.041,3.06.813s2.45,1.876,2.22,2.28Z" transform="translate(-6465 -682.781)"/>
</svg>
