<svg xmlns="http://www.w3.org/2000/svg" width="31.75" height="31.781" viewBox="0 0 31.75 31.781">
  <metadata><?xpacket begin="﻿" id="W5M0MpCehiHzreSzNTczkc9d"?>
<x:xmpmeta xmlns:x="adobe:ns:meta/" x:xmptk="Adobe XMP Core 5.6-c138 79.159824, 2016/09/14-01:09:01        ">
   <rdf:RDF xmlns:rdf="http://www.w3.org/1999/02/22-rdf-syntax-ns#">
      <rdf:Description rdf:about=""/>
   </rdf:RDF>
</x:xmpmeta>
                                                                                                    
                                                                                                    
                                                                                                    
                                                                                                    
                                                                                                    
                                                                                                    
                                                                                                    
                                                                                                    
                                                                                                    
                                                                                                    
                                                                                                    
                                                                                                    
                                                                                                    
                                                                                                    
                                                                                                    
                                                                                                    
                                                                                                    
                                                                                                    
                                                                                                    
                                                                                                    
                           
<?xpacket end="w"?></metadata>
<defs>
    <style>
      .cls-1 {
        fill: #fff;
        fill-rule: evenodd;
      }
    </style>
  </defs>
  <path id="Forma_1" data-name="Forma 1" class="cls-1" d="M7416.97,155.366a3.974,3.974,0,1,1-3.98,3.974A3.974,3.974,0,0,1,7416.97,155.366Zm5.95,18.749-0.9-7.026a1.978,1.978,0,0,0-1.98-1.788h-1.08a1.011,1.011,0,0,0-.71.29l-1.28,1.283-1.29-1.283a0.97,0.97,0,0,0-.7-0.29h-1.09a1.974,1.974,0,0,0-1.97,1.762l-0.91,7.054a1.048,1.048,0,0,0,.24.781,1,1,0,0,0,.75.337h1.07l0.83,10.134a1.987,1.987,0,0,0,1.98,1.788h2.18a2,2,0,0,0,1.98-1.806l0.83-10.116h1.07a0.993,0.993,0,0,0,.74-0.337A0.974,0.974,0,0,0,7422.92,174.115Zm3.98-18.749a3.974,3.974,0,1,1-3.97,3.974A3.976,3.976,0,0,1,7426.9,155.366Zm-19.87,0a3.974,3.974,0,1,0,3.98,3.974A3.975,3.975,0,0,0,7407.03,155.366Zm25.83,18.749-0.9-7.024a1.986,1.986,0,0,0-1.98-1.79h-1.09a0.987,0.987,0,0,0-.7.29l-1.29,1.283-1.28-1.283a1,1,0,0,0-.7-0.29h-1.09a1.957,1.957,0,0,0-.35.065,3.806,3.806,0,0,1,.51,1.494l0.91,7a2.988,2.988,0,0,1-.73,2.357,2.891,2.891,0,0,1-.99.7l0.66,6.464a1.978,1.978,0,0,0,1.98,1.788h2.17a1.981,1.981,0,0,0,1.98-1.806l0.83-8.129h1.07a1,1,0,0,0,.75-0.337A0.974,0.974,0,0,0,7432.86,174.115Zm-23.1,2.094a3.02,3.02,0,0,1-.72-2.343l0.91-7.055a3.615,3.615,0,0,1,.49-1.447,1.752,1.752,0,0,0-.33-0.063h-1.09a0.987,0.987,0,0,0-.7.29l-1.29,1.283-1.28-1.283a1,1,0,0,0-.7-0.29h-1.09a1.977,1.977,0,0,0-1.98,1.762l-0.9,7.054a0.972,0.972,0,0,0,.24.781,0.993,0.993,0,0,0,.74.337h1.08l0.83,8.147a1.978,1.978,0,0,0,1.97,1.788h2.18a1.981,1.981,0,0,0,1.98-1.806l0.66-6.448A3.023,3.023,0,0,1,7409.76,176.209Z" transform="translate(-7401.09 -155.375)"/>
</svg>
