<svg xmlns="http://www.w3.org/2000/svg" width="54.88" height="54" viewBox="0 0 54.88 54">
  <metadata><?xpacket begin="﻿" id="W5M0MpCehiHzreSzNTczkc9d"?>
<x:xmpmeta xmlns:x="adobe:ns:meta/" x:xmptk="Adobe XMP Core 5.6-c138 79.159824, 2016/09/14-01:09:01        ">
   <rdf:RDF xmlns:rdf="http://www.w3.org/1999/02/22-rdf-syntax-ns#">
      <rdf:Description rdf:about=""/>
   </rdf:RDF>
</x:xmpmeta>
                                                                                                    
                                                                                                    
                                                                                                    
                                                                                                    
                                                                                                    
                                                                                                    
                                                                                                    
                                                                                                    
                                                                                                    
                                                                                                    
                                                                                                    
                                                                                                    
                                                                                                    
                                                                                                    
                                                                                                    
                                                                                                    
                                                                                                    
                                                                                                    
                                                                                                    
                                                                                                    
                           
<?xpacket end="w"?></metadata>
<defs>
    <style>
      .cls-1 {
        fill: #fff;
        fill-rule: evenodd;
      }
    </style>
  </defs>
  <path id="ico-6" class="cls-1" d="M7441.33,1416a6.751,6.751,0,1,1-6.86,6.75A6.812,6.812,0,0,1,7441.33,1416Zm10.29,35.27-1.56-15.35a3.4,3.4,0,0,0-3.42-3.04h-1.88a1.709,1.709,0,0,0-1.21.49l-2.22,2.18-2.21-2.18a1.733,1.733,0,0,0-1.22-.49h-1.88a3.386,3.386,0,0,0-3.41,3.03l-1.56,15.36a1.692,1.692,0,0,0,.43,1.3,1.758,1.758,0,0,0,1.27.56h1.88l1.41,13.83a3.4,3.4,0,0,0,3.42,3.04h3.75a3.411,3.411,0,0,0,3.42-3.04l1.4-13.83h1.88a1.724,1.724,0,0,0,1.27-.56A1.651,1.651,0,0,0,7451.62,1451.27Zm32.61-31.89h-30.89a1.685,1.685,0,1,0,0,3.37h1.72v18.56a1.705,1.705,0,0,0,1.71,1.69h10.3v7.06a5.146,5.146,0,1,0,3.43,0V1443h10.3a1.705,1.705,0,0,0,1.71-1.69v-18.56h1.72A1.685,1.685,0,1,0,7484.23,1419.38Zm-15.44,37.12a1.685,1.685,0,1,1,1.71-1.69A1.707,1.707,0,0,1,7468.79,1456.5Zm6.77-28.15-1.71,5.06a1.714,1.714,0,0,1-.87.98,1.8,1.8,0,0,1-1.33.08l-3.95-1.35-2.89,2.67a1.7,1.7,0,0,1-1.17.46,1.717,1.717,0,0,1-1.25-.53,1.673,1.673,0,0,1,.07-2.39l3.65-3.37a1.756,1.756,0,0,1,1.74-.37l3.29,1.13,1.17-3.44a1.726,1.726,0,0,1,2.17-1.07A1.691,1.691,0,0,1,7475.56,1428.35Z" transform="translate(-7431.06 -1416)"/>
</svg>
