<svg xmlns="http://www.w3.org/2000/svg" width="30.38" height="30.375" viewBox="0 0 30.38 30.375">
  <metadata><?xpacket begin="﻿" id="W5M0MpCehiHzreSzNTczkc9d"?>
<x:xmpmeta xmlns:x="adobe:ns:meta/" x:xmptk="Adobe XMP Core 5.6-c138 79.159824, 2016/09/14-01:09:01        ">
   <rdf:RDF xmlns:rdf="http://www.w3.org/1999/02/22-rdf-syntax-ns#">
      <rdf:Description rdf:about=""/>
   </rdf:RDF>
</x:xmpmeta>
                                                                                                    
                                                                                                    
                                                                                                    
                                                                                                    
                                                                                                    
                                                                                                    
                                                                                                    
                                                                                                    
                                                                                                    
                                                                                                    
                                                                                                    
                                                                                                    
                                                                                                    
                                                                                                    
                                                                                                    
                                                                                                    
                                                                                                    
                                                                                                    
                                                                                                    
                                                                                                    
                           
<?xpacket end="w"?></metadata>
<defs>
    <style>
      .cls-1 {
        fill: #fff;
        fill-rule: evenodd;
      }
    </style>
  </defs>
  <path id="Forma_1" data-name="Forma 1" class="cls-1" d="M7715.11,169.315a1,1,0,0,0-.98-0.748,3.357,3.357,0,0,1-2.3-5.842,0.834,0.834,0,0,0,.09-1.146,15.092,15.092,0,0,0-2.4-2.432,0.851,0.851,0,0,0-1.16.094,3.5,3.5,0,0,1-3.79.851,3.372,3.372,0,0,1-2.05-3.3,0.849,0.849,0,0,0-.75-0.888,15.217,15.217,0,0,0-3.42-.009,0.841,0.841,0,0,0-.75.87,3.388,3.388,0,0,1-2.08,3.243,3.506,3.506,0,0,1-3.76-.857,0.852,0.852,0,0,0-1.15-.1,15.168,15.168,0,0,0-2.46,2.431,0.846,0.846,0,0,0,.09,1.155,3.365,3.365,0,0,1,.85,3.793,3.508,3.508,0,0,1-3.31,2.054,0.819,0.819,0,0,0-.87.747,14.8,14.8,0,0,0-.01,3.456,1.007,1.007,0,0,0,1,.748,3.324,3.324,0,0,1,3.12,2.083,3.383,3.383,0,0,1-.85,3.759,0.854,0.854,0,0,0-.09,1.145,15.19,15.19,0,0,0,2.41,2.432,0.837,0.837,0,0,0,1.15-.091,3.5,3.5,0,0,1,3.79-.852,3.376,3.376,0,0,1,2.06,3.3,0.841,0.841,0,0,0,.74.888,15.457,15.457,0,0,0,1.75.1,14.941,14.941,0,0,0,1.67-.092,0.858,0.858,0,0,0,.76-0.871,3.357,3.357,0,0,1,2.08-3.241,3.5,3.5,0,0,1,3.76.856,0.852,0.852,0,0,0,1.15.1,15.411,15.411,0,0,0,2.46-2.431,0.837,0.837,0,0,0-.1-1.155,3.358,3.358,0,0,1,2.26-5.853l0.19,0a0.841,0.841,0,0,0,.89-0.745A15.369,15.369,0,0,0,7715.11,169.315Zm-15.08,6.79a5.07,5.07,0,1,1,5.07-5.07A5.073,5.073,0,0,1,7700.03,176.105Z" transform="translate(-7684.81 -155.813)"/>
</svg>
