<svg xmlns="http://www.w3.org/2000/svg" width="31.82" height="31.781" viewBox="0 0 31.82 31.781">
  <metadata><?xpacket begin="﻿" id="W5M0MpCehiHzreSzNTczkc9d"?>
<x:xmpmeta xmlns:x="adobe:ns:meta/" x:xmptk="Adobe XMP Core 5.6-c138 79.159824, 2016/09/14-01:09:01        ">
   <rdf:RDF xmlns:rdf="http://www.w3.org/1999/02/22-rdf-syntax-ns#">
      <rdf:Description rdf:about=""/>
   </rdf:RDF>
</x:xmpmeta>
                                                                                                    
                                                                                                    
                                                                                                    
                                                                                                    
                                                                                                    
                                                                                                    
                                                                                                    
                                                                                                    
                                                                                                    
                                                                                                    
                                                                                                    
                                                                                                    
                                                                                                    
                                                                                                    
                                                                                                    
                                                                                                    
                                                                                                    
                                                                                                    
                                                                                                    
                                                                                                    
                           
<?xpacket end="w"?></metadata>
<defs>
    <style>
      .cls-1 {
        fill: #fff;
        fill-rule: evenodd;
      }
    </style>
  </defs>
  <path id="Forma_1" data-name="Forma 1" class="cls-1" d="M6911.78,155.668a1,1,0,0,0-.92-0.613h-1.98V153.07a1,1,0,0,0-.62-0.917,0.989,0.989,0,0,0-1.08.214l-2.98,2.978a0.975,0.975,0,0,0-.29.7v2.567l-10.64,10.625a0.987,0.987,0,0,0,0,1.4,1,1,0,0,0,.7.292,1.016,1.016,0,0,0,.71-0.29l10.63-10.627h2.57a1.011,1.011,0,0,0,.71-0.29l2.98-2.977A1.006,1.006,0,0,0,6911.78,155.668Zm-10.48,11.207-3.39,3.4a3.962,3.962,0,1,1-4.14-4.279l3.33-3.344A7.946,7.946,0,1,0,6901.3,166.875Zm4.39-4.4-2.93,2.936a9.766,9.766,0,0,1,1.15,4.529,9.935,9.935,0,1,1-9.94-9.924,9.806,9.806,0,0,1,4.59,1.173l2.93-2.932A13.941,13.941,0,1,0,6905.69,162.476Z" transform="translate(-6880.06 -152.063)"/>
</svg>
