<svg xmlns="http://www.w3.org/2000/svg" width="31.82" height="31.781" viewBox="0 0 31.82 31.781">
  <metadata><?xpacket begin="﻿" id="W5M0MpCehiHzreSzNTczkc9d"?>
<x:xmpmeta xmlns:x="adobe:ns:meta/" x:xmptk="Adobe XMP Core 5.6-c138 79.159824, 2016/09/14-01:09:01        ">
   <rdf:RDF xmlns:rdf="http://www.w3.org/1999/02/22-rdf-syntax-ns#">
      <rdf:Description rdf:about=""/>
   </rdf:RDF>
</x:xmpmeta>
                                                                                                    
                                                                                                    
                                                                                                    
                                                                                                    
                                                                                                    
                                                                                                    
                                                                                                    
                                                                                                    
                                                                                                    
                                                                                                    
                                                                                                    
                                                                                                    
                                                                                                    
                                                                                                    
                                                                                                    
                                                                                                    
                                                                                                    
                                                                                                    
                                                                                                    
                                                                                                    
                           
<?xpacket end="w"?></metadata>
<defs>
    <style>
      .cls-1 {
        fill: #fff;
        fill-rule: evenodd;
      }
    </style>
  </defs>
  <path id="Forma_1" data-name="Forma 1" class="cls-1" d="M7150.93,168.962a8.937,8.937,0,1,0,8.94,8.936A8.95,8.95,0,0,0,7150.93,168.962Zm3.68,12.618a0.988,0.988,0,0,1-.7.29,0.971,0.971,0,0,1-.7-0.29l-2.99-2.979a1.02,1.02,0,0,1-.29-0.7v-3.971a1,1,0,0,1,1.99,0v3.56l2.69,2.689A0.989,0.989,0,0,1,7154.61,181.58Zm-13.87-7.616c-0.07-.083-0.13-0.179-0.21-0.258l-2.52-2.516-2.53,2.518a4.949,4.949,0,0,0-1.45,3.509v1.676h6.01c-0.03-.327-0.05-0.659-0.05-1A10.738,10.738,0,0,1,7140.74,173.964Zm-6.71-14.932v1.674a4.97,4.97,0,0,0,1.45,3.512l2.53,2.518,2.52-2.518a4.963,4.963,0,0,0,1.45-3.512v-1.674h-7.95Zm12.92-3.972h-17.89a0.993,0.993,0,0,0,0,1.986h0.99v3.66a8.876,8.876,0,0,0,2.62,6.32l1.94,1.936-1.94,1.936a8.875,8.875,0,0,0-2.62,6.319v3.66h-0.99a0.993,0.993,0,0,0,0,1.986l12.14,0a10.563,10.563,0,0,1-.78-1.986l-8.38,0v-3.66a6.883,6.883,0,0,1,2.04-4.915l2.64-2.637a1,1,0,0,0,0-1.406l-2.64-2.638a6.878,6.878,0,0,1-2.04-4.915v-3.66h11.93v3.66a6.881,6.881,0,0,1-2.04,4.915l-2.64,2.64a0.995,0.995,0,0,0,0,1.4l2.41,2.4a11.354,11.354,0,0,1,1.22-1.585l-1.52-1.521,1.94-1.939a8.864,8.864,0,0,0,2.62-6.317v-3.66h0.99A0.993,0.993,0,1,0,7146.95,155.06Z" transform="translate(-7128.06 -155.063)"/>
</svg>
