<svg xmlns="http://www.w3.org/2000/svg" width="131.06" height="14.656" viewBox="0 0 131.06 14.656">
  <metadata><?xpacket begin="﻿" id="W5M0MpCehiHzreSzNTczkc9d"?>
<x:xmpmeta xmlns:x="adobe:ns:meta/" x:xmptk="Adobe XMP Core 5.6-c138 79.159824, 2016/09/14-01:09:01        ">
   <rdf:RDF xmlns:rdf="http://www.w3.org/1999/02/22-rdf-syntax-ns#">
      <rdf:Description rdf:about=""/>
   </rdf:RDF>
</x:xmpmeta>
                       
<?xpacket end="w"?></metadata>
<defs>
    <style>
      .cls-1 {
        fill: #fff;
        fill-rule: evenodd;
      }
    </style>
  </defs>
  <path id="CryptoLuc" class="cls-1" d="M2682.68,108.15c0,5.1,3.82,7.182,7.78,7.182a9.891,9.891,0,0,0,4.1-.84v-4.221a5.526,5.526,0,0,1-3.5,1c-1.84,0-3.64-.92-3.64-3.121,0-2.5,1.82-3.46,3.74-3.46a6.183,6.183,0,0,1,3.3.96v-4.121a10.12,10.12,0,0,0-4.12-.84C2686.5,100.689,2682.66,102.829,2682.68,108.15Zm19.38,6.862v-4.141h1.08l2.88,4.141h5.08l-3.6-4.881a4.31,4.31,0,0,0,2.4-4.181c0-3.821-2.98-4.941-5.96-4.941h-6.5v14h4.62Zm0-10.242h1.78a1.324,1.324,0,1,1,0,2.64h-1.78v-2.64Zm18.7,10.242v-4.781l5.34-9.222h-5.22l-2.4,5.3-2.4-5.3h-5.22l5.32,9.222v4.781h4.58Zm7.5-14v14h4.62v-3.661h1.5c3.56,0,6.28-1.24,6.28-5.161,0-3.941-2.72-5.181-6.28-5.181h-6.12Zm7.82,5.181c0,0.96-.68,1.36-1.74,1.36h-1.46v-2.74h1.46C2735.4,104.81,2736.08,105.21,2736.08,106.19Zm6.34-5.181v4.041h3.76v9.962h4.6V105.05h3.76v-4.041h-12.12Zm13.64,7c0,4.021,2.54,7.322,7.58,7.322s7.58-3.3,7.58-7.322-2.54-7.321-7.58-7.321S2756.06,103.989,2756.06,108.01Zm10.42,0c0,1.921-1.04,3.141-2.84,3.141s-2.84-1.22-2.84-3.141,1.04-3.14,2.84-3.14S2766.48,106.09,2766.48,108.01Zm8.26-7v14h9.44v-1.6h-7.76v-12.4h-1.68Zm22.14,0v8.8q0,3.84-4.16,3.841-4.185,0-4.18-3.841v-8.8h-1.68v8.882a4.836,4.836,0,0,0,1.64,4.08,6.647,6.647,0,0,0,4.22,1.281,8.415,8.415,0,0,0,2.23-.28,5.63,5.63,0,0,0,1.84-.89,4.052,4.052,0,0,0,1.3-1.681,6.255,6.255,0,0,0,.47-2.51v-8.882h-1.68Zm5.46,7.1a7.208,7.208,0,0,0,.64,3.071,6.132,6.132,0,0,0,1.7,2.26,7.849,7.849,0,0,0,2.36,1.341,7.664,7.664,0,0,0,2.64.47,8.723,8.723,0,0,0,4.06-.94v-1.681a6.269,6.269,0,0,1-3.7,1.021,7,7,0,0,1-2.85-.581,5.694,5.694,0,0,1-1.37-9.232,6.279,6.279,0,0,1,4.16-1.47,6.422,6.422,0,0,1,3.66,1.02v-1.68a8.311,8.311,0,0,0-3.94-.94,7.882,7.882,0,0,0-3.52.8,6.724,6.724,0,0,0-2.74,2.51A7.236,7.236,0,0,0,2802.34,108.11Z" transform="translate(-2682.69 -100.688)"/>
</svg>
