<svg xmlns="http://www.w3.org/2000/svg" width="171" height="186" viewBox="0 0 171 186">
  <metadata><?xpacket begin="﻿" id="W5M0MpCehiHzreSzNTczkc9d"?>
<x:xmpmeta xmlns:x="adobe:ns:meta/" x:xmptk="Adobe XMP Core 5.6-c138 79.159824, 2016/09/14-01:09:01        ">
   <rdf:RDF xmlns:rdf="http://www.w3.org/1999/02/22-rdf-syntax-ns#">
      <rdf:Description rdf:about=""/>
   </rdf:RDF>
</x:xmpmeta>
                                                                                                    
                                                                                                    
                                                                                                    
                                                                                                    
                                                                                                    
                                                                                                    
                                                                                                    
                                                                                                    
                                                                                                    
                                                                                                    
                                                                                                    
                                                                                                    
                                                                                                    
                                                                                                    
                                                                                                    
                                                                                                    
                                                                                                    
                                                                                                    
                                                                                                    
                                                                                                    
                           
<?xpacket end="w"?></metadata>
<defs>
    <style>
      .cls-1 {
        fill: #fff;
        fill-rule: evenodd;
      }
    </style>
  </defs>
  <path class="cls-1" d="M15292.4,1172.63l-23.4-23.25a3.785,3.785,0,0,0-5.4,0,3.728,3.728,0,0,0,0,5.48l16.6,16.64h-68.3a3.875,3.875,0,1,0,0,7.75h68.3l-16.6,16.63a3.728,3.728,0,0,0,0,5.48,3.779,3.779,0,0,0,5.4.01l23.4-23.24a5.08,5.08,0,0,0,.8-1.27,3.8,3.8,0,0,0,0-2.96A5.08,5.08,0,0,0,15292.4,1172.63Zm-1.3,21.08a3.8,3.8,0,0,0-4.2.84l-12.4,12.3a11.982,11.982,0,0,1-16.5,0,11.52,11.52,0,0,1-1.7-14.03,3.828,3.828,0,0,0,0-3.87,3.925,3.925,0,0,0-3.4-1.95h-2.1a3.863,3.863,0,0,0-3.9,3.88v46.5a19.412,19.412,0,0,0,19.4,19.37h23.3a3.863,3.863,0,0,0,3.9-3.88v-55.58A3.811,3.811,0,0,0,15291.1,1193.71Zm71.1-99.71a16.593,16.593,0,0,0-6.6,1.36l-44.2,18.87a16.751,16.751,0,0,0-10.1,15.37v133.67a16.764,16.764,0,0,0,16.8,16.73,16.955,16.955,0,0,0,6.6-1.36l44.1-18.87a16.684,16.684,0,0,0,10.2-15.37V1110.73A16.764,16.764,0,0,0,15362.2,1094Zm-37.6,104.62a3.9,3.9,0,0,1-7.8,0v-15.5a3.9,3.9,0,0,1,7.8,0v15.5h0Zm-3-97.19a3.848,3.848,0,0,0,2.3-4.34,3.935,3.935,0,0,0-3.8-3.09h-53.8a19.412,19.412,0,0,0-19.4,19.37v46.5a3.863,3.863,0,0,0,3.9,3.88h2.1a1.335,1.335,0,0,1,.2,0,3.842,3.842,0,0,0,3.8-3.88,4.076,4.076,0,0,0-1-2.66,11.429,11.429,0,0,1,2.2-13.31,11.857,11.857,0,0,1,16.4,0l12.4,12.29a3.868,3.868,0,0,0,6.6-2.73V1129.6a24.376,24.376,0,0,1,14.9-22.5Z" transform="translate(-15208 -1094)"/>
</svg>
