<svg xmlns="http://www.w3.org/2000/svg" width="184" height="138" viewBox="0 0 184 138">
  <metadata><?xpacket begin="﻿" id="W5M0MpCehiHzreSzNTczkc9d"?>
<x:xmpmeta xmlns:x="adobe:ns:meta/" x:xmptk="Adobe XMP Core 5.6-c138 79.159824, 2016/09/14-01:09:01        ">
   <rdf:RDF xmlns:rdf="http://www.w3.org/1999/02/22-rdf-syntax-ns#">
      <rdf:Description rdf:about=""/>
   </rdf:RDF>
</x:xmpmeta>
                                                                                                    
                                                                                                    
                                                                                                    
                                                                                                    
                                                                                                    
                                                                                                    
                                                                                                    
                                                                                                    
                                                                                                    
                                                                                                    
                                                                                                    
                                                                                                    
                                                                                                    
                                                                                                    
                                                                                                    
                                                                                                    
                                                                                                    
                                                                                                    
                                                                                                    
                                                                                                    
                           
<?xpacket end="w"?></metadata>
<defs>
    <style>
      .cls-1 {
        fill: #fff;
        fill-rule: evenodd;
      }
    </style>
  </defs>
  <path class="cls-1" d="M15402.2,1001a3.9,3.9,0,0,0-3.9,3.83,26.836,26.836,0,0,1-26.8,26.84h-128.2a3.835,3.835,0,0,0-3.3,5.75,19.2,19.2,0,0,0,16.5,9.58h130.3a19.2,19.2,0,0,0,19.2-19.17v-23A3.818,3.818,0,0,0,15402.2,1001Zm-30.7,23a19.2,19.2,0,0,0,19.2-19.17V928.167A19.2,19.2,0,0,0,15371.5,909h-130.3a19.2,19.2,0,0,0-19.2,19.167v76.663a19.2,19.2,0,0,0,19.2,19.17h130.3Zm-38.3-84.334h38.3a3.834,3.834,0,0,1,0,7.667h-38.3A3.834,3.834,0,1,1,15333.2,939.666Zm0,23h38.3a3.834,3.834,0,0,1,0,7.667h-38.3A3.834,3.834,0,1,1,15333.2,962.666Zm0,23h38.3a3.834,3.834,0,0,1,0,7.667h-38.3A3.834,3.834,0,1,1,15333.2,985.667Zm-53.7-61.334a42.106,42.106,0,0,1,29.8,71.946c-0.1.1-.2,0.175-0.3,0.267a0.516,0.516,0,0,1,.1-0.039A42.169,42.169,0,1,1,15279.5,924.333Zm0,76.667a34.567,34.567,0,0,0,28-14.459,32.7,32.7,0,0,0-15.3-13.486,18.824,18.824,0,0,0,6.5-14.222,19.2,19.2,0,0,0-38.4,0,18.824,18.824,0,0,0,6.5,14.222,32.7,32.7,0,0,0-15.3,13.486A34.567,34.567,0,0,0,15279.5,1001Z" transform="translate(-15222 -909)"/>
</svg>
