<svg xmlns="http://www.w3.org/2000/svg" width="21" height="28" viewBox="0 0 21 28">
  <metadata><?xpacket begin="﻿" id="W5M0MpCehiHzreSzNTczkc9d"?>
<x:xmpmeta xmlns:x="adobe:ns:meta/" x:xmptk="Adobe XMP Core 5.6-c138 79.159824, 2016/09/14-01:09:01        ">
   <rdf:RDF xmlns:rdf="http://www.w3.org/1999/02/22-rdf-syntax-ns#">
      <rdf:Description rdf:about=""/>
   </rdf:RDF>
</x:xmpmeta>
                                                                                                    
                                                                                                    
                                                                                                    
                                                                                                    
                                                                                                    
                                                                                                    
                                                                                                    
                                                                                                    
                                                                                                    
                                                                                                    
                                                                                                    
                                                                                                    
                                                                                                    
                                                                                                    
                                                                                                    
                                                                                                    
                                                                                                    
                                                                                                    
                                                                                                    
                                                                                                    
                           
<?xpacket end="w"?></metadata>
<defs>
    <style>
      .cls-1 {
        fill: #5cab2e;
        fill-rule: evenodd;
      }
    </style>
  </defs>
  <path id="Forma_1" data-name="Forma 1" class="cls-1" d="M3007.17,1817.5h-1.75v-2.33a8.17,8.17,0,0,0-16.34,0v2.33h-1.75a0.58,0.58,0,0,0-.58.58v14.59a2.339,2.339,0,0,0,2.33,2.33h16.34a2.339,2.339,0,0,0,2.33-2.33v-14.59A0.58,0.58,0,0,0,3007.17,1817.5Zm-8.17,12.19a0.617,0.617,0,0,1-.15.45,0.591,0.591,0,0,1-.43.19h-2.34a0.591,0.591,0,0,1-.43-0.19,0.617,0.617,0,0,1-.15-0.45l0.37-3.31a2.33,2.33,0,1,1,2.76,0Zm2.92-12.19h-9.34v-2.33a4.67,4.67,0,0,1,9.34,0v2.33Z" transform="translate(-2986.75 -1807)"/>
</svg>
