<svg xmlns="http://www.w3.org/2000/svg" width="21" height="27.97" viewBox="0 0 21 27.97">
  <metadata><?xpacket begin="﻿" id="W5M0MpCehiHzreSzNTczkc9d"?>
<x:xmpmeta xmlns:x="adobe:ns:meta/" x:xmptk="Adobe XMP Core 5.6-c138 79.159824, 2016/09/14-01:09:01        ">
   <rdf:RDF xmlns:rdf="http://www.w3.org/1999/02/22-rdf-syntax-ns#">
      <rdf:Description rdf:about=""/>
   </rdf:RDF>
</x:xmpmeta>
                                                                                                    
                                                                                                    
                                                                                                    
                                                                                                    
                                                                                                    
                                                                                                    
                                                                                                    
                                                                                                    
                                                                                                    
                                                                                                    
                                                                                                    
                                                                                                    
                                                                                                    
                                                                                                    
                                                                                                    
                                                                                                    
                                                                                                    
                                                                                                    
                                                                                                    
                                                                                                    
                           
<?xpacket end="w"?></metadata>
<defs>
    <style>
      .cls-1 {
        fill: #57acdd;
        fill-rule: evenodd;
      }
    </style>
  </defs>
  <path id="Forma_1" data-name="Forma 1" class="cls-1" d="M2734.86,1812.54l-9.92-3.5a0.617,0.617,0,0,0-.38,0l-9.92,3.5a0.6,0.6,0,0,0-.39.55v7c0,9.06,1.34,12.36,10.24,16.85a0.593,0.593,0,0,0,.52,0c8.9-4.49,10.24-7.79,10.24-16.85v-7A0.6,0.6,0,0,0,2734.86,1812.54Zm-9.84,21.77a0.579,0.579,0,0,1-.57-0.02,0.559,0.559,0,0,1-.28-0.5v-9.62a0.583,0.583,0,0,0-.59-0.58h-6.36a0.583,0.583,0,0,1-.58-0.56c-0.04-.89-0.06-1.86-0.06-2.94v-5.35a0.6,0.6,0,0,1,.39-0.55l7.59-2.67a0.582,0.582,0,0,1,.19-0.03,0.589,0.589,0,0,1,.34.1,0.6,0.6,0,0,1,.24.48v9.77a0.583,0.583,0,0,0,.59.58h6.36a0.6,0.6,0,0,1,.42.18,0.579,0.579,0,0,1,.16.43C2732.59,1828.91,2731.05,1831.13,2725.02,1834.31Z" transform="translate(-2714.25 -1809.03)"/>
</svg>
