<svg xmlns="http://www.w3.org/2000/svg" xmlns:xlink="http://www.w3.org/1999/xlink" width="62.75" height="56" viewBox="0 0 62.75 56">
  <metadata><?xpacket begin="﻿" id="W5M0MpCehiHzreSzNTczkc9d"?>
<x:xmpmeta xmlns:x="adobe:ns:meta/" x:xmptk="Adobe XMP Core 5.6-c138 79.159824, 2016/09/14-01:09:01        ">
   <rdf:RDF xmlns:rdf="http://www.w3.org/1999/02/22-rdf-syntax-ns#">
      <rdf:Description rdf:about=""/>
   </rdf:RDF>
</x:xmpmeta>
                         
<?xpacket end="w"?></metadata>
<defs>
    <style>
      .cls-1 {
        fill-rule: evenodd;
        fill: url(#linear-gradient);
      }
    </style>
    <linearGradient id="linear-gradient" x1="6748.505" y1="1366.5" x2="6748.505" y2="1422.5" gradientUnits="userSpaceOnUse">
      <stop offset="0" stop-color="#e92182"/>
      <stop offset="1" stop-color="#a014ef"/>
    </linearGradient>
  </defs>
  <path id="Forma_1_копия_13" data-name="Forma 1 копия 13" class="cls-1" d="M6730.83,1369.38l-12.93,22.06a5.787,5.787,0,0,0-.04,5.79l12.67,22.2a5.774,5.774,0,0,0,5,2.92l25.6,0.14a5.82,5.82,0,0,0,5.04-2.86l12.93-22.07a5.787,5.787,0,0,0,.04-5.79l-12.67-22.2a5.774,5.774,0,0,0-5-2.92l-25.6-.14A5.808,5.808,0,0,0,6730.83,1369.38Z" transform="translate(-6717.13 -1366.5)"/>
</svg>



