<svg xmlns="http://www.w3.org/2000/svg" width="15.13" height="15.125" viewBox="0 0 15.13 15.125">
  <metadata><?xpacket begin="﻿" id="W5M0MpCehiHzreSzNTczkc9d"?>
<x:xmpmeta xmlns:x="adobe:ns:meta/" x:xmptk="Adobe XMP Core 5.6-c138 79.159824, 2016/09/14-01:09:01        ">
   <rdf:RDF xmlns:rdf="http://www.w3.org/1999/02/22-rdf-syntax-ns#">
      <rdf:Description rdf:about=""/>
   </rdf:RDF>
</x:xmpmeta>
                                                                                                    
                                                                                                    
                                                                                                    
                                                                                                    
                                                                                                    
                                                                                                    
                                                                                                    
                                                                                                    
                                                                                                    
                                                                                                    
                                                                                                    
                                                                                                    
                                                                                                    
                                                                                                    
                                                                                                    
                                                                                                    
                                                                                                    
                                                                                                    
                                                                                                    
                                                                                                    
                           
<?xpacket end="w"?></metadata>
<defs>
    <style>
      .cls-1 {
        fill: #fff;
        fill-rule: evenodd;
      }
    </style>
  </defs>
  <path id="skype" class="cls-1" d="M3357.33,28.095a6.6,6.6,0,0,0,.08-1.095,7.013,7.013,0,0,0-7.01-7.015,7.167,7.167,0,0,0-1.1.086,4.17,4.17,0,0,0-2.22-.631,4.241,4.241,0,0,0-3.61,6.466,7.876,7.876,0,0,0-.09,1.094,7.023,7.023,0,0,0,8.11,6.93A4.242,4.242,0,0,0,3357.33,28.095Zm-3.6,2.1a2.921,2.921,0,0,1-1.3,1,5.215,5.215,0,0,1-2.03.361,4.815,4.815,0,0,1-2.31-.494,2.955,2.955,0,0,1-1.06-.948,2.071,2.071,0,0,1-.41-1.16,0.792,0.792,0,0,1,.25-0.575,0.912,0.912,0,0,1,.64-0.239,0.774,0.774,0,0,1,.53.187,1.373,1.373,0,0,1,.37.542,3.363,3.363,0,0,0,.38.691,1.563,1.563,0,0,0,.58.452,2.24,2.24,0,0,0,.98.178,2.33,2.33,0,0,0,1.36-.361,1.048,1.048,0,0,0,.52-0.889,0.879,0.879,0,0,0-.28-0.683,1.838,1.838,0,0,0-.72-0.407c-0.3-.095-0.71-0.2-1.21-0.3a9.411,9.411,0,0,1-1.71-.519,2.755,2.755,0,0,1-1.1-.813,2.04,2.04,0,0,1-.41-1.288,2.142,2.142,0,0,1,.43-1.3,2.729,2.729,0,0,1,1.25-.873,5.4,5.4,0,0,1,1.9-.3,5.082,5.082,0,0,1,1.51.2,3.312,3.312,0,0,1,1.06.537,2.3,2.3,0,0,1,.62.7,1.563,1.563,0,0,1,.2.725,0.834,0.834,0,0,1-.26.592,0.806,0.806,0,0,1-.62.263,0.759,0.759,0,0,1-.52-0.16,2.166,2.166,0,0,1-.38-0.507,2.186,2.186,0,0,0-.6-0.762,1.9,1.9,0,0,0-1.14-.27,2.127,2.127,0,0,0-1.18.295,0.873,0.873,0,0,0-.44.7,0.659,0.659,0,0,0,.15.433,1.261,1.261,0,0,0,.42.319,2.522,2.522,0,0,0,.54.212c0.18,0.052.48,0.127,0.91,0.227a14.69,14.69,0,0,1,1.44.382,4.529,4.529,0,0,1,1.11.51,2.122,2.122,0,0,1,.72.765,2.328,2.328,0,0,1,.26,1.133A2.451,2.451,0,0,1,3353.73,30.19Z" transform="translate(-3342.84 -19.438)"/>
</svg>
