<svg xmlns="http://www.w3.org/2000/svg" width="16.78" height="14.281" viewBox="0 0 16.78 14.281">
  <metadata><?xpacket begin="﻿" id="W5M0MpCehiHzreSzNTczkc9d"?>
<x:xmpmeta xmlns:x="adobe:ns:meta/" x:xmptk="Adobe XMP Core 5.6-c138 79.159824, 2016/09/14-01:09:01        ">
   <rdf:RDF xmlns:rdf="http://www.w3.org/1999/02/22-rdf-syntax-ns#">
      <rdf:Description rdf:about=""/>
   </rdf:RDF>
</x:xmpmeta>
                                                                                                    
                                                                                                    
                                                                                                    
                                                                                                    
                                                                                                    
                                                                                                    
                                                                                                    
                                                                                                    
                                                                                                    
                                                                                                    
                                                                                                    
                                                                                                    
                                                                                                    
                                                                                                    
                                                                                                    
                                                                                                    
                                                                                                    
                                                                                                    
                                                                                                    
                                                                                                    
                           
<?xpacket end="w"?></metadata>
<defs>
    <style>
      .cls-1 {
        fill: #fff;
        fill-rule: evenodd;
      }
    </style>
  </defs>
  <path id="telegram" class="cls-1" d="M3306.18,27.113l3.87,1.412,1.5,4.706a0.466,0.466,0,0,0,.73.214l2.16-1.719a0.664,0.664,0,0,1,.79-0.021l3.89,2.76a0.464,0.464,0,0,0,.72-0.269l2.85-13.394a0.45,0.45,0,0,0-.61-0.507l-15.91,5.986A0.441,0.441,0,0,0,3306.18,27.113Zm5.13,0.661,7.58-4.551a0.13,0.13,0,0,1,.16.2l-6.25,5.668a1.264,1.264,0,0,0-.41.756l-0.21,1.539a0.2,0.2,0,0,1-.38.027l-0.82-2.806A0.74,0.74,0,0,1,3311.31,27.774Z" transform="translate(-3305.91 -20.281)"/>
</svg>
