<svg xmlns="http://www.w3.org/2000/svg" width="24.34" height="14.281" viewBox="0 0 24.34 14.281">
  <metadata><?xpacket begin="﻿" id="W5M0MpCehiHzreSzNTczkc9d"?>
<x:xmpmeta xmlns:x="adobe:ns:meta/" x:xmptk="Adobe XMP Core 5.6-c138 79.159824, 2016/09/14-01:09:01        ">
   <rdf:RDF xmlns:rdf="http://www.w3.org/1999/02/22-rdf-syntax-ns#">
      <rdf:Description rdf:about=""/>
   </rdf:RDF>
</x:xmpmeta>
                         
<?xpacket end="w"?></metadata>
<defs>
    <style>
      .cls-1 {
        fill: #fff;
        fill-rule: evenodd;
      }
    </style>
  </defs>
  <path id="vk" class="cls-1" d="M3422.58,29.368a32.361,32.361,0,0,1,2.38,2.492,7.179,7.179,0,0,1,.86,1.279,0.925,0.925,0,0,1-.54,1.429l-3.55,0a2.7,2.7,0,0,1-2.26-.954c-0.49-.519-0.94-1.073-1.41-1.609a3.688,3.688,0,0,0-.64-0.59,0.727,0.727,0,0,0-1.18.3,3.922,3.922,0,0,0-.38,1.719,0.956,0.956,0,0,1-1.13,1.136,8.78,8.78,0,0,1-5.07-1.134,11.345,11.345,0,0,1-3.42-3.323,45.286,45.286,0,0,1-4.49-8.324c-0.28-.656-0.08-1.008.62-1.021,1.16-.023,2.31-0.021,3.47,0a1.022,1.022,0,0,1,.96.749,22.966,22.966,0,0,0,2.36,4.532,3.74,3.74,0,0,0,.89,1.015,0.536,0.536,0,0,0,.92-0.28,3.421,3.421,0,0,0,.2-0.95,14.847,14.847,0,0,0-.06-3.331,1.366,1.366,0,0,0-1.13-1.27c-0.34-.067-0.29-0.2-0.13-0.4a1.264,1.264,0,0,1,1.09-.562h4.01a0.973,0.973,0,0,1,.85,1.083l0.01,4.626a1.365,1.365,0,0,0,.56,1.183,0.773,0.773,0,0,0,.8-0.407,14.366,14.366,0,0,0,2.26-3.6c0.27-.569.5-1.162,0.73-1.752a0.862,0.862,0,0,1,.91-0.644l3.86,0a2,2,0,0,1,.34.021,0.689,0.689,0,0,1,.62,1.066,10,10,0,0,1-1.53,2.764c-0.64.925-1.33,1.818-1.97,2.749a1.28,1.28,0,0,0,.19,2.015h0Z" transform="translate(-3401.63 -20.281)"/>
</svg>
