<svg xmlns="http://www.w3.org/2000/svg" width="21" height="14.281" viewBox="0 0 21 14.281">
  <metadata><?xpacket begin="﻿" id="W5M0MpCehiHzreSzNTczkc9d"?>
<x:xmpmeta xmlns:x="adobe:ns:meta/" x:xmptk="Adobe XMP Core 5.6-c138 79.159824, 2016/09/14-01:09:01        ">
   <rdf:RDF xmlns:rdf="http://www.w3.org/1999/02/22-rdf-syntax-ns#">
      <rdf:Description rdf:about=""/>
   </rdf:RDF>
</x:xmpmeta>
                                                                                                    
                                                                                                    
                                                                                                    
                                                                                                    
                                                                                                    
                                                                                                    
                                                                                                    
                                                                                                    
                                                                                                    
                                                                                                    
                                                                                                    
                                                                                                    
                                                                                                    
                                                                                                    
                                                                                                    
                                                                                                    
                                                                                                    
                                                                                                    
                                                                                                    
                                                                                                    
                           
<?xpacket end="w"?></metadata>
<defs>
    <style>
      .cls-1 {
        fill: #fff;
        fill-rule: evenodd;
      }
    </style>
  </defs>
  <path class="cls-1" d="M3461.3,21.506c-0.76-.87-2.16-1.226-4.83-1.226h-9.7c-2.74,0-4.16.378-4.91,1.3-0.74.9-.74,2.235-0.74,4.079v3.513c0,3.57.87,5.384,5.65,5.384h9.7c2.32,0,3.6-.313,4.43-1.082,0.86-.788,1.22-2.075,1.22-4.3V25.664C3462.12,23.72,3462.06,22.38,3461.3,21.506Zm-6.7,6.4-4.4,2.225a0.715,0.715,0,0,1-.32.074,0.7,0.7,0,0,1-.35-0.094,0.65,0.65,0,0,1-.32-0.56V25.114a0.65,0.65,0,0,1,.32-0.559,0.69,0.69,0,0,1,.66-0.021l4.41,2.21a0.664,0.664,0,0,1,.37.58A0.648,0.648,0,0,1,3454.6,27.905Z" transform="translate(-3441.13 -20.281)"/>
</svg>
